<svg xmlns="http://www.w3.org/2000/svg" viewBox="0 0 409.23 409.23"><g id="Calque_2" data-name="Calque 2"><g id="PT2"><g id="Calque_20" data-name="Calque 20"><rect x="0.5" y="0.5" width="408.23" height="408.23" style="fill:none;stroke:#1d1d1b;stroke-miterlimit:10"/><rect x="306.67" y="51.53" width="51.03" height="51.03" style="fill:none;stroke:#1d1d1b;stroke-miterlimit:10"/><rect x="357.7" y="0.5" width="25.51" height="25.51" style="fill:none;stroke:#1d1d1b;stroke-miterlimit:10"/><rect x="383.21" y="26.01" width="25.51" height="25.51" style="fill:none;stroke:#1d1d1b;stroke-miterlimit:10"/><rect x="357.7" y="0.5" width="51.03" height="51.03" style="fill:none;stroke:#1d1d1b;stroke-miterlimit:10"/><rect x="204.61" y="204.61" width="204.11" height="204.11" style="fill:none;stroke:#1d1d1b;stroke-miterlimit:10"/><circle cx="47.68" cy="327.73" r="4.98" style="fill:#d01226"/><circle cx="250.66" cy="162.2" r="4.98" style="fill:#63b333"/><circle cx="365.48" cy="43.75" r="4.98" style="fill:#63b333"/><circle cx="400.95" cy="8.28" r="4.98" style="fill:#63b333"/><circle cx="321.52" cy="72.06" r="4.98" style="fill:#63b333"/><circle cx="383.21" cy="181.02" r="4.98" style="fill:#63b333"/><circle cx="346.71" cy="8.28" r="4.98" style="fill:#63b333"/><rect x="0.5" y="0.5" width="204.11" height="204.11" style="fill:none;stroke:#1d1d1b;stroke-miterlimit:10"/><rect x="204.61" y="0.5" width="204.11" height="204.11" style="fill:none;stroke:#1d1d1b;stroke-miterlimit:10"/><rect x="204.61" y="0.5" width="102.06" height="102.06" style="fill:none;stroke:#1d1d1b;stroke-miterlimit:10"/><rect x="306.67" y="0.5" width="102.06" height="102.06" style="fill:none;stroke:#1d1d1b;stroke-miterlimit:10"/><rect x="204.61" y="102.56" width="102.06" height="102.06" style="fill:none;stroke:#40b0e5;stroke-miterlimit:10;stroke-width:2px"/></g></g></g></svg>