<svg xmlns="http://www.w3.org/2000/svg" viewBox="0 0 409.73 409.73"><g id="Calque_2" data-name="Calque 2"><g id="PT2"><g id="Calque_20" data-name="Calque 20"><rect x="1" y="0.5" width="408.23" height="408.23" style="fill:none;stroke:#1d1d1b;stroke-miterlimit:10"/><rect x="307.17" y="51.53" width="51.03" height="51.03" style="fill:none;stroke:#1d1d1b;stroke-miterlimit:10"/><rect x="358.2" y="0.5" width="25.51" height="25.51" style="fill:none;stroke:#1d1d1b;stroke-miterlimit:10"/><rect x="383.71" y="26.01" width="25.51" height="25.51" style="fill:none;stroke:#1d1d1b;stroke-miterlimit:10"/><rect x="358.2" y="0.5" width="51.03" height="51.03" style="fill:none;stroke:#1d1d1b;stroke-miterlimit:10"/><rect x="205.11" y="204.61" width="204.11" height="204.11" style="fill:none;stroke:#1d1d1b;stroke-miterlimit:10"/><circle cx="48.18" cy="327.73" r="4.98" style="fill:#d01226"/><circle cx="251.16" cy="162.2" r="4.98" style="fill:#63b333"/><circle cx="365.98" cy="43.75" r="4.98" style="fill:#63b333"/><circle cx="401.45" cy="8.28" r="4.98" style="fill:#63b333"/><circle cx="322.02" cy="72.06" r="4.98" style="fill:#63b333"/><circle cx="383.71" cy="181.02" r="4.98" style="fill:#63b333"/><circle cx="347.21" cy="8.28" r="4.98" style="fill:#63b333"/><rect x="1" y="0.5" width="204.11" height="204.11" style="fill:none;stroke:#1d1d1b;stroke-miterlimit:10"/><rect x="205.11" y="0.5" width="204.11" height="204.11" style="fill:none;stroke:#1d1d1b;stroke-miterlimit:10"/><rect x="205.11" y="0.5" width="102.06" height="102.06" style="fill:none;stroke:#1d1d1b;stroke-miterlimit:10"/><rect x="307.17" y="0.5" width="102.06" height="102.06" style="fill:none;stroke:#1d1d1b;stroke-miterlimit:10"/><rect x="205.11" y="102.56" width="102.06" height="102.06" style="fill:none;stroke:#1d1d1b;stroke-miterlimit:10"/><rect x="307.17" y="102.56" width="102.06" height="102.06" style="fill:none;stroke:#1d1d1b;stroke-miterlimit:10"/><rect x="1" y="204.61" width="204.11" height="204.11" style="fill:none;stroke:#40b0e5;stroke-miterlimit:10;stroke-width:2px"/></g></g></g></svg>