<svg xmlns="http://www.w3.org/2000/svg" viewBox="0 0 668.43 306.96"><g id="Calque_2" data-name="Calque 2"><g id="PT2"><g id="Calque_20" data-name="Calque 20"><rect x="0.5" y="0.5" width="305.96" height="305.96" style="fill:none;stroke:#1d1d1b;stroke-miterlimit:10"/><rect x="229.97" y="38.74" width="38.24" height="38.24" style="fill:none;stroke:#1d1d1b;stroke-miterlimit:10"/><rect x="268.21" y="0.5" width="19.12" height="19.12" style="fill:none;stroke:#1d1d1b;stroke-miterlimit:10"/><rect x="287.34" y="19.62" width="19.12" height="19.12" style="fill:none;stroke:#1d1d1b;stroke-miterlimit:10"/><rect x="268.21" y="0.5" width="38.24" height="38.24" style="fill:none;stroke:#1d1d1b;stroke-miterlimit:10"/><rect x="153.48" y="153.48" width="152.98" height="152.98" style="fill:none;stroke:#1d1d1b;stroke-miterlimit:10"/><circle cx="35.86" cy="245.75" r="3.73" style="fill:#d01226"/><circle cx="187.99" cy="121.69" r="3.73" style="fill:#58c1da"/><circle cx="274.04" cy="32.91" r="3.73" style="fill:#f3e600"/><circle cx="300.63" cy="6.33" r="3.73" style="fill:#63b333"/><circle cx="241.1" cy="54.14" r="3.73" style="fill:#eb6123"/><circle cx="287.34" cy="135.8" r="3.73" style="fill:#86539c"/><circle cx="259.98" cy="6.33" r="3.73" style="fill:#0080c0"/><rect x="0.5" y="0.5" width="152.98" height="152.98" style="fill:none;stroke:#1d1d1b;stroke-miterlimit:10"/><rect x="153.48" y="0.5" width="152.98" height="152.98" style="fill:none;stroke:#1d1d1b;stroke-miterlimit:10"/><rect x="153.48" y="0.5" width="76.49" height="76.49" style="fill:none;stroke:#1d1d1b;stroke-miterlimit:10"/><rect x="229.97" y="0.5" width="76.49" height="76.49" style="fill:none;stroke:#1d1d1b;stroke-miterlimit:10"/><rect x="153.48" y="76.99" width="76.49" height="76.49" style="fill:none;stroke:#000;stroke-miterlimit:10"/><line x1="340.63" y1="44.81" x2="340.63" y2="81.13" style="fill:none;stroke:#1d1d1b;stroke-miterlimit:10"/><path d="M340.63,84.15a14.9,14.9,0,0,0-2.38-4.28l2.38.86,2.38-.86A15.39,15.39,0,0,0,340.63,84.15Z" style="fill:#1d1d1b"/><circle cx="340.63" cy="34.81" r="10" style="fill:none;stroke:#1d1d1b;stroke-miterlimit:10"/><circle cx="446.4" cy="153.48" r="10" style="fill:none;stroke:#1d1d1b;stroke-miterlimit:10"/><circle cx="516.91" cy="153.48" r="10" style="fill:none;stroke:#1d1d1b;stroke-miterlimit:10"/><circle cx="587.42" cy="153.48" r="10" style="fill:#58c1da;stroke:#1d1d1b;stroke-miterlimit:10"/><circle cx="657.93" cy="153.48" r="10" style="fill:#86539c;stroke:#1d1d1b;stroke-miterlimit:10"/><circle cx="516.91" cy="212.82" r="10" style="fill:#0080c0;stroke:#1d1d1b;stroke-miterlimit:10"/><circle cx="563.92" cy="212.82" r="10" style="fill:none;stroke:#1d1d1b;stroke-miterlimit:10"/><circle cx="610.92" cy="212.82" r="10" style="fill:#eb6123;stroke:#1d1d1b;stroke-miterlimit:10"/><circle cx="657.93" cy="212.82" r="10" style="fill:none;stroke:#1d1d1b;stroke-miterlimit:10"/><circle cx="563.92" cy="272.15" r="10" style="fill:none;stroke:#1d1d1b;stroke-miterlimit:10"/><circle cx="595.25" cy="272.15" r="10" style="fill:#63b333;stroke:#1d1d1b;stroke-miterlimit:10"/><circle cx="626.59" cy="272.15" r="10" style="fill:#f3e600;stroke:#1d1d1b;stroke-miterlimit:10"/><circle cx="657.93" cy="272.15" r="10" style="fill:none;stroke:#1d1d1b;stroke-miterlimit:10"/><circle cx="340.63" cy="94.14" r="10" style="fill:none;stroke:#1d1d1b;stroke-miterlimit:10"/><circle cx="446.4" cy="94.14" r="10" style="fill:none;stroke:#1d1d1b;stroke-miterlimit:10"/><circle cx="552.16" cy="94.14" r="10" style="fill:#d01226;stroke:#1d1d1b;stroke-miterlimit:10"/><circle cx="657.93" cy="94.14" r="10" style="fill:none;stroke:#1d1d1b;stroke-miterlimit:10"/><line x1="350.63" y1="94.14" x2="433.38" y2="94.14" style="fill:none;stroke:#1d1d1b;stroke-miterlimit:10"/><path d="M436.4,94.14a15.2,15.2,0,0,0-4.27,2.38l.86-2.38-.86-2.37A14.93,14.93,0,0,0,436.4,94.14Z" style="fill:#1d1d1b"/><line x1="456.4" y1="94.14" x2="539.15" y2="94.14" style="fill:none;stroke:#1d1d1b;stroke-miterlimit:10"/><path d="M542.17,94.14a15.39,15.39,0,0,0-4.28,2.38l.86-2.38-.86-2.37A15.12,15.12,0,0,0,542.17,94.14Z" style="fill:#1d1d1b"/><line x1="562.16" y1="94.14" x2="644.91" y2="94.14" style="fill:none;stroke:#1d1d1b;stroke-miterlimit:10"/><path d="M647.93,94.14a15.2,15.2,0,0,0-4.27,2.38l.86-2.38-.86-2.37A14.93,14.93,0,0,0,647.93,94.14Z" style="fill:#1d1d1b"/><line x1="446.4" y1="104.14" x2="446.4" y2="140.47" style="fill:none;stroke:#1d1d1b;stroke-miterlimit:10"/><path d="M446.4,143.48a15.2,15.2,0,0,0-2.38-4.27l2.38.86,2.38-.86A14.72,14.72,0,0,0,446.4,143.48Z" style="fill:#1d1d1b"/><line x1="456.4" y1="153.48" x2="503.89" y2="153.48" style="fill:none;stroke:#1d1d1b;stroke-miterlimit:10"/><path d="M506.91,153.48a15.2,15.2,0,0,0-4.27,2.38l.86-2.38-.86-2.38A15.2,15.2,0,0,0,506.91,153.48Z" style="fill:#1d1d1b"/><line x1="526.91" y1="153.48" x2="574.4" y2="153.48" style="fill:none;stroke:#1d1d1b;stroke-miterlimit:10"/><path d="M577.42,153.48a15.2,15.2,0,0,0-4.27,2.38l.86-2.38-.86-2.38A15.2,15.2,0,0,0,577.42,153.48Z" style="fill:#1d1d1b"/><line x1="597.42" y1="153.48" x2="644.91" y2="153.48" style="fill:none;stroke:#1d1d1b;stroke-miterlimit:10"/><path d="M647.93,153.48a15.2,15.2,0,0,0-4.27,2.38l.86-2.38-.86-2.38A15.2,15.2,0,0,0,647.93,153.48Z" style="fill:#1d1d1b"/><line x1="516.91" y1="163.48" x2="516.91" y2="199.8" style="fill:none;stroke:#1d1d1b;stroke-miterlimit:10"/><path d="M516.91,202.82a15.39,15.39,0,0,0-2.38-4.28l2.38.86,2.38-.86A14.9,14.9,0,0,0,516.91,202.82Z" style="fill:#1d1d1b"/><line x1="526.91" y1="212.82" x2="550.9" y2="212.82" style="fill:none;stroke:#1d1d1b;stroke-miterlimit:10"/><path d="M553.92,212.82a15.12,15.12,0,0,0-4.28,2.37l.86-2.37-.86-2.38A15.39,15.39,0,0,0,553.92,212.82Z" style="fill:#1d1d1b"/><line x1="573.91" y1="212.82" x2="597.91" y2="212.82" style="fill:none;stroke:#1d1d1b;stroke-miterlimit:10"/><path d="M600.93,212.82a15,15,0,0,0-4.28,2.37l.86-2.37-.86-2.38A15.25,15.25,0,0,0,600.93,212.82Z" style="fill:#1d1d1b"/><line x1="620.92" y1="212.82" x2="644.91" y2="212.82" style="fill:none;stroke:#1d1d1b;stroke-miterlimit:10"/><path d="M647.93,212.82a14.93,14.93,0,0,0-4.27,2.37l.86-2.37-.86-2.38A15.2,15.2,0,0,0,647.93,212.82Z" style="fill:#1d1d1b"/><line x1="563.92" y1="222.81" x2="563.92" y2="259.14" style="fill:none;stroke:#1d1d1b;stroke-miterlimit:10"/><path d="M563.92,262.15a15.2,15.2,0,0,0-2.38-4.27l2.38.86,2.37-.86A14.93,14.93,0,0,0,563.92,262.15Z" style="fill:#1d1d1b"/><line x1="573.91" y1="272.15" x2="582.24" y2="272.15" style="fill:none;stroke:#1d1d1b;stroke-miterlimit:10"/><path d="M585.26,272.15a15.25,15.25,0,0,0-4.28,2.38l.86-2.38-.86-2.38A15,15,0,0,0,585.26,272.15Z" style="fill:#1d1d1b"/><line x1="605.25" y1="272.15" x2="613.58" y2="272.15" style="fill:none;stroke:#1d1d1b;stroke-miterlimit:10"/><path d="M616.59,272.15a15.2,15.2,0,0,0-4.27,2.38l.86-2.38-.86-2.38A15,15,0,0,0,616.59,272.15Z" style="fill:#1d1d1b"/><line x1="636.59" y1="272.15" x2="644.91" y2="272.15" style="fill:none;stroke:#1d1d1b;stroke-miterlimit:10"/><path d="M647.93,272.15a15.2,15.2,0,0,0-4.27,2.38l.86-2.38-.86-2.38A15,15,0,0,0,647.93,272.15Z" style="fill:#1d1d1b"/></g></g></g></svg>