<svg xmlns="http://www.w3.org/2000/svg" viewBox="0 0 678.42 306.96"><g id="Calque_2" data-name="Calque 2"><g id="PT2"><rect x="0.5" y="0.5" width="305.96" height="305.96" style="fill:none;stroke:#1d1d1b;stroke-miterlimit:10"/><rect x="229.97" y="38.74" width="38.24" height="38.24" style="fill:none;stroke:#1d1d1b;stroke-miterlimit:10"/><rect x="153.48" y="76.99" width="38.24" height="38.24" style="fill:none;stroke:#1d1d1b;stroke-miterlimit:10"/><rect x="191.72" y="115.23" width="38.24" height="38.24" style="fill:none;stroke:#1d1d1b;stroke-miterlimit:10"/><rect x="268.21" y="0.5" width="19.12" height="19.12" style="fill:none;stroke:#1d1d1b;stroke-miterlimit:10"/><rect x="287.34" y="19.62" width="19.12" height="19.12" style="fill:none;stroke:#1d1d1b;stroke-miterlimit:10"/><rect x="268.21" y="0.5" width="38.24" height="38.24" style="fill:none;stroke:#1d1d1b;stroke-miterlimit:10"/><rect x="153.48" y="153.48" width="152.98" height="152.98" style="fill:none;stroke:#1d1d1b;stroke-miterlimit:10"/><circle cx="35.86" cy="245.75" r="3.73" style="fill:#d01226"/><circle cx="187.99" cy="121.69" r="3.73" style="fill:#58c1da"/><circle cx="274.04" cy="32.91" r="3.73" style="fill:#f3e600"/><circle cx="300.63" cy="6.33" r="3.73" style="fill:#63b333"/><circle cx="241.1" cy="54.14" r="3.73" style="fill:#eb6123"/><circle cx="287.34" cy="135.8" r="3.73" style="fill:#86539c"/><circle cx="259.98" cy="6.33" r="3.73" style="fill:#0080c0"/><rect x="0.5" y="0.5" width="152.98" height="152.98" style="fill:none;stroke:#1d1d1b;stroke-miterlimit:10"/><rect x="153.48" y="0.5" width="152.98" height="152.98" style="fill:none;stroke:#1d1d1b;stroke-miterlimit:10"/><rect x="153.48" y="0.5" width="76.49" height="76.49" style="fill:none;stroke:#1d1d1b;stroke-miterlimit:10"/><rect x="229.97" y="0.5" width="76.49" height="76.49" style="fill:none;stroke:#1d1d1b;stroke-miterlimit:10"/><rect x="153.48" y="76.99" width="76.49" height="76.49" style="fill:none;stroke:#000;stroke-miterlimit:10"/><line x1="340.63" y1="44.81" x2="340.63" y2="81.13" style="fill:none;stroke:#1d1d1b;stroke-miterlimit:10"/><path d="M340.63,84.15a14.9,14.9,0,0,0-2.38-4.28l2.38.86,2.38-.86A15.39,15.39,0,0,0,340.63,84.15Z" style="fill:#1d1d1b"/><circle cx="340.63" cy="34.81" r="10" style="fill:none;stroke:#1d1d1b;stroke-miterlimit:10"/><circle cx="446.4" cy="153.48" r="10" style="fill:none;stroke:#1d1d1b;stroke-miterlimit:10"/><circle cx="516.91" cy="153.48" r="10" style="fill:none;stroke:#1d1d1b;stroke-miterlimit:10"/><circle cx="587.42" cy="153.48" r="10" style="fill:none;stroke:#1d1d1b;stroke-miterlimit:10"/><circle cx="657.93" cy="153.48" r="10" style="fill:#86539c;stroke:#1d1d1b;stroke-miterlimit:10"/><circle cx="340.63" cy="94.14" r="10" style="fill:none;stroke:#1d1d1b;stroke-miterlimit:10"/><circle cx="446.4" cy="94.14" r="10" style="fill:none;stroke:#1d1d1b;stroke-miterlimit:10"/><circle cx="552.16" cy="94.14" r="10" style="fill:#d01226;stroke:#1d1d1b;stroke-miterlimit:10"/><circle cx="657.93" cy="94.14" r="10" style="fill:none;stroke:#1d1d1b;stroke-miterlimit:10"/><line x1="350.63" y1="94.14" x2="433.38" y2="94.14" style="fill:none;stroke:#1d1d1b;stroke-miterlimit:10"/><path d="M436.4,94.14a15.2,15.2,0,0,0-4.27,2.38l.86-2.38-.86-2.37A14.93,14.93,0,0,0,436.4,94.14Z" style="fill:#1d1d1b"/><line x1="456.4" y1="94.14" x2="539.15" y2="94.14" style="fill:none;stroke:#1d1d1b;stroke-miterlimit:10"/><path d="M542.17,94.14a15.39,15.39,0,0,0-4.28,2.38l.86-2.38-.86-2.37A15.12,15.12,0,0,0,542.17,94.14Z" style="fill:#1d1d1b"/><line x1="562.16" y1="94.14" x2="644.91" y2="94.14" style="fill:none;stroke:#1d1d1b;stroke-miterlimit:10"/><path d="M647.93,94.14a15.2,15.2,0,0,0-4.27,2.38l.86-2.38-.86-2.37A14.93,14.93,0,0,0,647.93,94.14Z" style="fill:#1d1d1b"/><line x1="446.4" y1="104.14" x2="446.4" y2="140.47" style="fill:none;stroke:#1d1d1b;stroke-miterlimit:10"/><path d="M446.4,143.48a15.2,15.2,0,0,0-2.38-4.27l2.38.86,2.38-.86A14.72,14.72,0,0,0,446.4,143.48Z" style="fill:#1d1d1b"/><line x1="456.4" y1="153.48" x2="503.89" y2="153.48" style="fill:none;stroke:#1d1d1b;stroke-miterlimit:10"/><path d="M506.91,153.48a15.2,15.2,0,0,0-4.27,2.38l.86-2.38-.86-2.38A15.2,15.2,0,0,0,506.91,153.48Z" style="fill:#1d1d1b"/><line x1="526.91" y1="153.48" x2="574.4" y2="153.48" style="fill:none;stroke:#1d1d1b;stroke-miterlimit:10"/><path d="M577.42,153.48a15.2,15.2,0,0,0-4.27,2.38l.86-2.38-.86-2.38A15.2,15.2,0,0,0,577.42,153.48Z" style="fill:#1d1d1b"/><line x1="597.42" y1="153.48" x2="644.91" y2="153.48" style="fill:none;stroke:#1d1d1b;stroke-miterlimit:10"/><path d="M647.93,153.48a15.2,15.2,0,0,0-4.27,2.38l.86-2.38-.86-2.38A15.2,15.2,0,0,0,647.93,153.48Z" style="fill:#1d1d1b"/><line x1="342.39" y1="212.82" x2="366.38" y2="212.82" style="fill:none;stroke:#1d1d1b;stroke-miterlimit:10"/><path d="M369.4,212.82a14.93,14.93,0,0,0-4.27,2.37l.86-2.37-.86-2.38A15.2,15.2,0,0,0,369.4,212.82Z" style="fill:#1d1d1b"/><line x1="389.39" y1="212.82" x2="413.39" y2="212.82" style="fill:none;stroke:#1d1d1b;stroke-miterlimit:10"/><path d="M416.41,212.82a15.12,15.12,0,0,0-4.28,2.37l.86-2.37-.86-2.38A15.39,15.39,0,0,0,416.41,212.82Z" style="fill:#1d1d1b"/><line x1="436.4" y1="212.82" x2="460.4" y2="212.82" style="fill:none;stroke:#1d1d1b;stroke-miterlimit:10"/><path d="M463.41,212.82a14.93,14.93,0,0,0-4.27,2.37l.86-2.37-.86-2.38A15.2,15.2,0,0,0,463.41,212.82Z" style="fill:#1d1d1b"/><circle cx="332.39" cy="212.82" r="10" style="fill:#0080c0;stroke:#1d1d1b;stroke-miterlimit:10"/><circle cx="379.4" cy="212.82" r="10" style="fill:none;stroke:#1d1d1b;stroke-miterlimit:10"/><circle cx="426.4" cy="212.82" r="10" style="fill:#eb6123;stroke:#1d1d1b;stroke-miterlimit:10"/><circle cx="473.41" cy="212.82" r="10" style="fill:none;stroke:#1d1d1b;stroke-miterlimit:10"/><circle cx="379.4" cy="272.15" r="10" style="fill:none;stroke:#1d1d1b;stroke-miterlimit:10"/><circle cx="410.74" cy="272.15" r="10" style="fill:#63b333;stroke:#1d1d1b;stroke-miterlimit:10"/><circle cx="442.07" cy="272.15" r="10" style="fill:#f3e600;stroke:#1d1d1b;stroke-miterlimit:10"/><circle cx="473.41" cy="272.15" r="10" style="fill:none;stroke:#1d1d1b;stroke-miterlimit:10"/><line x1="379.4" y1="222.81" x2="379.4" y2="259.14" style="fill:none;stroke:#1d1d1b;stroke-miterlimit:10"/><path d="M379.4,262.15a15.2,15.2,0,0,0-2.38-4.27l2.38.86,2.38-.86A14.72,14.72,0,0,0,379.4,262.15Z" style="fill:#1d1d1b"/><line x1="389.39" y1="272.15" x2="397.72" y2="272.15" style="fill:none;stroke:#1d1d1b;stroke-miterlimit:10"/><path d="M400.74,272.15a15.39,15.39,0,0,0-4.28,2.38l.87-2.38-.87-2.38A15.14,15.14,0,0,0,400.74,272.15Z" style="fill:#1d1d1b"/><line x1="420.73" y1="272.15" x2="429.06" y2="272.15" style="fill:none;stroke:#1d1d1b;stroke-miterlimit:10"/><path d="M432.08,272.15a15.39,15.39,0,0,0-4.28,2.38l.86-2.38-.86-2.38A15.14,15.14,0,0,0,432.08,272.15Z" style="fill:#1d1d1b"/><line x1="452.07" y1="272.15" x2="460.4" y2="272.15" style="fill:none;stroke:#1d1d1b;stroke-miterlimit:10"/><path d="M463.41,272.15a15.2,15.2,0,0,0-4.27,2.38l.86-2.38-.86-2.38A15,15,0,0,0,463.41,272.15Z" style="fill:#1d1d1b"/><line x1="536.9" y1="212.82" x2="560.9" y2="212.82" style="fill:none;stroke:#1d1d1b;stroke-miterlimit:10"/><path d="M563.92,212.82a15,15,0,0,0-4.28,2.37l.86-2.37-.86-2.38A15.25,15.25,0,0,0,563.92,212.82Z" style="fill:#1d1d1b"/><line x1="583.91" y1="212.82" x2="607.9" y2="212.82" style="fill:none;stroke:#1d1d1b;stroke-miterlimit:10"/><path d="M610.92,212.82a14.93,14.93,0,0,0-4.27,2.37l.86-2.37-.86-2.38A15.2,15.2,0,0,0,610.92,212.82Z" style="fill:#1d1d1b"/><line x1="630.92" y1="212.82" x2="654.91" y2="212.82" style="fill:none;stroke:#1d1d1b;stroke-miterlimit:10"/><path d="M657.93,212.82a14.93,14.93,0,0,0-4.27,2.37l.86-2.37-.86-2.38A15.2,15.2,0,0,0,657.93,212.82Z" style="fill:#1d1d1b"/><circle cx="526.91" cy="212.82" r="10" style="fill:none;stroke:#1d1d1b;stroke-miterlimit:10"/><circle cx="573.91" cy="212.82" r="10" style="fill:none;stroke:#1d1d1b;stroke-miterlimit:10"/><circle cx="620.92" cy="212.82" r="10" style="fill:#58c1da;stroke:#1d1d1b;stroke-miterlimit:10"/><circle cx="667.93" cy="212.82" r="10" style="fill:none;stroke:#1d1d1b;stroke-miterlimit:10"/><line x1="205.41" y1="84.15" x2="219.63" y2="98.36" style="fill:#fff;stroke:#1d1d1b;stroke-miterlimit:10"/><line x1="219.63" y1="84.15" x2="205.41" y2="98.36" style="fill:#fff;stroke:#1d1d1b;stroke-miterlimit:10"/><line x1="566.8" y1="205.71" x2="581.02" y2="219.92" style="fill:#fff;stroke:#1d1d1b;stroke-miterlimit:10"/><line x1="581.02" y1="205.71" x2="566.8" y2="219.92" style="fill:#fff;stroke:#1d1d1b;stroke-miterlimit:10"/><line x1="516.91" y1="163.48" x2="335.34" y2="202.19" style="fill:none;stroke:#1d1d1b;stroke-miterlimit:10"/><path d="M332.39,202.82a14.86,14.86,0,0,0,3.68-3.22l-.34,2.51,1.34,2.14A15.26,15.26,0,0,0,332.39,202.82Z" style="fill:#1d1d1b"/><line x1="587.42" y1="163.48" x2="529.44" y2="201.17" style="fill:none;stroke:#1d1d1b;stroke-miterlimit:10"/><path d="M526.91,202.82a15.09,15.09,0,0,0,2.28-4.32l.58,2.46,2,1.52A15.2,15.2,0,0,0,526.91,202.82Z" style="fill:#1d1d1b"/></g></g></svg>