<svg xmlns="http://www.w3.org/2000/svg" viewBox="0 0 664.32 246.99"><g id="Calque_2" data-name="Calque 2"><g id="PT1"><g id="Calque_16" data-name="Calque 16"><polygon points="0.5 246.39 0.5 196.27 25.46 183.77 75.55 183.77 75.55 233.7 50.38 246.39 0.5 246.39" style="fill:#f7b281"/><polygon points="0.5 246.39 0.5 196.27 25.46 183.77 75.55 183.77 75.55 233.7 50.38 246.39 0.5 246.39" style="fill:none;stroke:#1d1d1b;stroke-miterlimit:10"/><polyline points="0.5 196.27 50.19 196.27 50.38 246.39" style="fill:none;stroke:#1d1d1b;stroke-miterlimit:10"/><line x1="50.19" y1="196.27" x2="75.55" y2="183.77" style="fill:none;stroke:#1d1d1b;stroke-miterlimit:10"/><polygon points="83.54 246.6 83.54 196.48 108.51 183.98 158.59 183.98 158.59 233.91 133.43 246.6 83.54 246.6" style="fill:#f6ef8f"/><polygon points="83.54 246.39 83.54 196.27 108.51 183.77 158.59 183.77 158.59 233.7 133.43 246.39 83.54 246.39" style="fill:none;stroke:#1d1d1b;stroke-miterlimit:10"/><polyline points="83.54 196.27 133.08 196.27 133.43 246.39" style="fill:none;stroke:#1d1d1b;stroke-miterlimit:10"/><line x1="133.08" y1="196.27" x2="158.59" y2="183.77" style="fill:none;stroke:#1d1d1b;stroke-miterlimit:10"/><polygon points="275.69 124.63 275.69 25.28 325.18 0.5 424.47 0.5 424.47 99.47 374.58 124.63 275.69 124.63" style="fill:none;stroke:#1d1d1b;stroke-miterlimit:10"/><polyline points="275.69 25.28 374.58 25.28 374.58 124.63" style="fill:none;stroke:#1d1d1b;stroke-miterlimit:10"/><line x1="374.58" y1="25.28" x2="424.47" y2="0.5" style="fill:none;stroke:#1d1d1b;stroke-miterlimit:10"/><polygon points="168.58 246.39 168.58 196.27 193.54 183.77 243.63 183.77 243.63 233.7 218.46 246.39 168.58 246.39" style="fill:#5fbb9a"/><polygon points="168.58 246.39 168.58 196.27 193.54 183.77 243.63 183.77 243.63 233.7 218.46 246.39 168.58 246.39" style="fill:none;stroke:#1d1d1b;stroke-miterlimit:10"/><polyline points="168.58 196.27 218.46 196.27 218.46 246.39" style="fill:none;stroke:#1d1d1b;stroke-miterlimit:10"/><line x1="218.46" y1="196.27" x2="243.63" y2="183.77" style="fill:none;stroke:#1d1d1b;stroke-miterlimit:10"/><polygon points="252.62 246.39 252.62 196.27 277.58 183.77 327.67 183.77 327.67 233.7 302.5 246.39 252.62 246.39" style="fill:#ed6964"/><polygon points="252.62 246.39 252.62 196.27 277.58 183.77 327.67 183.77 327.67 233.7 302.5 246.39 252.62 246.39" style="fill:none;stroke:#1d1d1b;stroke-miterlimit:10"/><polyline points="252.62 196.27 302.5 196.27 302.5 246.39" style="fill:none;stroke:#1d1d1b;stroke-miterlimit:10"/><line x1="302.5" y1="196.27" x2="327.67" y2="183.77" style="fill:none;stroke:#1d1d1b;stroke-miterlimit:10"/><polygon points="336.65 246.39 336.65 196.27 361.62 183.77 411.7 183.77 411.7 233.7 386.54 246.39 336.65 246.39" style="fill:#3fbac7"/><polygon points="336.65 246.39 336.65 196.27 361.62 183.77 411.7 183.77 411.7 233.7 386.54 246.39 336.65 246.39" style="fill:none;stroke:#1d1d1b;stroke-miterlimit:10"/><polyline points="336.65 196.27 386.54 196.27 386.54 246.39" style="fill:none;stroke:#1d1d1b;stroke-miterlimit:10"/><line x1="386.54" y1="196.27" x2="411.7" y2="183.77" style="fill:none;stroke:#1d1d1b;stroke-miterlimit:10"/><polygon points="420.69 246.39 420.69 196.27 445.65 183.77 495.74 183.77 495.74 233.7 470.58 246.39 420.69 246.39" style="fill:#65a8dc"/><polygon points="420.69 246.39 420.69 196.27 445.65 183.77 495.74 183.77 495.74 233.7 470.58 246.39 420.69 246.39" style="fill:none;stroke:#1d1d1b;stroke-miterlimit:10"/><polyline points="420.69 196.27 470.08 196.27 470.58 246.39" style="fill:none;stroke:#1d1d1b;stroke-miterlimit:10"/><line x1="470.08" y1="196.27" x2="495.74" y2="183.77" style="fill:none;stroke:#1d1d1b;stroke-miterlimit:10"/><polygon points="504.73 246.28 504.73 196.17 529.69 183.67 579.78 183.67 579.78 233.59 554.62 246.28 504.73 246.28" style="fill:#ab83ba"/><polygon points="504.73 246.49 504.73 196.38 529.69 183.88 579.78 183.88 579.78 233.8 554.62 246.49 504.73 246.49" style="fill:none;stroke:#1d1d1b;stroke-miterlimit:10"/><polyline points="504.73 196.38 554.62 196.38 554.62 246.49" style="fill:none;stroke:#1d1d1b;stroke-miterlimit:10"/><line x1="554.62" y1="196.38" x2="579.78" y2="183.88" style="fill:#fff;stroke:#1d1d1b;stroke-miterlimit:10"/><polygon points="588.77 246.49 588.77 196.38 613.73 183.88 663.82 183.88 663.82 233.8 638.65 246.49 588.77 246.49" style="fill:#9190c6"/><polygon points="588.77 246.28 588.77 196.17 613.73 183.67 663.82 183.67 663.82 233.59 638.65 246.28 588.77 246.28" style="fill:none;stroke:#1d1d1b;stroke-miterlimit:10"/><polyline points="588.77 196.17 637.92 196.17 638.65 246.28" style="fill:none;stroke:#1d1d1b;stroke-miterlimit:10"/><line x1="637.92" y1="196.17" x2="663.82" y2="183.67" style="fill:none;stroke:#1d1d1b;stroke-miterlimit:10"/><line x1="325.14" y1="124.63" x2="49.06" y2="183.04" style="fill:none;stroke:#a31916;stroke-miterlimit:10"/><path d="M46.11,183.67a15.46,15.46,0,0,0,3.69-3.21l-.35,2.5,1.33,2.15A15,15,0,0,0,46.11,183.67Z" style="fill:#a31916"/><line x1="50.18" y1="221.28" x2="81.52" y2="221.38" style="fill:none;stroke:#a31916;stroke-miterlimit:10"/><path d="M84.54,221.39a15,15,0,0,0-4.28,2.36l.87-2.38L80.27,219A15.25,15.25,0,0,0,84.54,221.39Z" style="fill:#a31916"/><line x1="134.07" y1="221.17" x2="165.42" y2="221.27" style="fill:none;stroke:#a31916;stroke-miterlimit:10"/><path d="M168.44,221.28a15.2,15.2,0,0,0-4.28,2.36l.86-2.37-.85-2.38A15.22,15.22,0,0,0,168.44,221.28Z" style="fill:#a31916"/><line x1="218.46" y1="221.28" x2="249.81" y2="221.38" style="fill:none;stroke:#a31916;stroke-miterlimit:10"/><path d="M252.82,221.39a15.09,15.09,0,0,0-4.28,2.36l.87-2.38-.85-2.38A15.33,15.33,0,0,0,252.82,221.39Z" style="fill:#a31916"/><line x1="302.5" y1="221.33" x2="333.84" y2="221.43" style="fill:none;stroke:#a31916;stroke-miterlimit:10"/><path d="M336.86,221.44a15.34,15.34,0,0,0-4.28,2.36l.87-2.37-.85-2.38A15.17,15.17,0,0,0,336.86,221.44Z" style="fill:#a31916"/><line x1="386.54" y1="221.39" x2="417.88" y2="221.49" style="fill:none;stroke:#a31916;stroke-miterlimit:10"/><path d="M420.9,221.5a15,15,0,0,0-4.28,2.36l.87-2.38-.86-2.38A15.25,15.25,0,0,0,420.9,221.5Z" style="fill:#a31916"/><line x1="470.58" y1="221.33" x2="501.92" y2="221.43" style="fill:none;stroke:#a31916;stroke-miterlimit:10"/><path d="M504.94,221.44a15.2,15.2,0,0,0-4.28,2.36l.87-2.37-.86-2.38A15.22,15.22,0,0,0,504.94,221.44Z" style="fill:#a31916"/><line x1="554.62" y1="221.44" x2="585.96" y2="221.54" style="fill:none;stroke:#a31916;stroke-miterlimit:10"/><path d="M589,221.55a15.2,15.2,0,0,0-4.28,2.36l.86-2.37-.85-2.38A15.22,15.22,0,0,0,589,221.55Z" style="fill:#a31916"/></g><g id="Calque_15" data-name="Calque 15"><polygon points="349.41 112.19 349.41 62.56 374.37 50.18 424.47 50.18 424.47 99.62 399.3 112.19 349.41 112.19" style="fill:#9190c6"/><polygon points="349.41 111.98 349.41 62.35 374.37 49.97 424.47 49.97 424.47 99.42 399.3 111.98 349.41 111.98" style="fill:none;stroke:#1d1d1b;stroke-miterlimit:10"/><polyline points="349.41 62.35 398.56 62.35 399.3 111.98" style="fill:none;stroke:#1d1d1b;stroke-miterlimit:10"/><line x1="398.56" y1="62.35" x2="424.47" y2="49.97" style="fill:none;stroke:#1d1d1b;stroke-miterlimit:10"/><polygon points="299.69 62.51 299.69 12.88 324.65 0.5 374.75 0.5 374.75 49.94 349.58 62.51 299.69 62.51" style="fill:#3fbac7"/><polygon points="299.69 62.51 299.69 12.88 324.65 0.5 374.75 0.5 374.75 49.94 349.58 62.51 299.69 62.51" style="fill:none;stroke:#1d1d1b;stroke-miterlimit:10"/><polyline points="299.69 12.88 349.58 12.88 349.58 62.51" style="fill:none;stroke:#1d1d1b;stroke-miterlimit:10"/><line x1="349.58" y1="12.88" x2="374.75" y2="0.5" style="fill:none;stroke:#1d1d1b;stroke-miterlimit:10"/><polygon points="349.41 62.51 349.41 12.88 374.37 0.5 424.47 0.5 424.47 49.94 399.3 62.51 349.41 62.51" style="fill:#65a8dc"/><polygon points="349.41 62.51 349.41 12.88 374.37 0.5 424.47 0.5 424.47 49.94 399.3 62.51 349.41 62.51" style="fill:none;stroke:#1d1d1b;stroke-miterlimit:10"/><polyline points="349.41 12.88 398.8 12.88 399.3 62.51" style="fill:none;stroke:#1d1d1b;stroke-miterlimit:10"/><line x1="398.8" y1="12.88" x2="424.47" y2="0.5" style="fill:none;stroke:#1d1d1b;stroke-miterlimit:10"/><polygon points="274.74 124.52 274.74 74.89 299.71 62.51 349.81 62.51 349.81 111.95 324.63 124.52 274.74 124.52" style="fill:#5fbb9a"/><polygon points="274.74 124.52 274.74 74.89 299.71 62.51 349.81 62.51 349.81 111.95 324.63 124.52 274.74 124.52" style="fill:none;stroke:#1d1d1b;stroke-miterlimit:10"/><polyline points="274.74 74.89 324.63 74.89 324.63 124.52" style="fill:none;stroke:#1d1d1b;stroke-miterlimit:10"/><line x1="324.63" y1="74.89" x2="349.81" y2="62.51" style="fill:none;stroke:#1d1d1b;stroke-miterlimit:10"/><polygon points="324.46 124.52 324.46 74.89 349.43 62.51 399.52 62.51 399.52 111.95 374.35 124.52 324.46 124.52" style="fill:#ed6964"/><polygon points="324.46 124.52 324.46 74.89 349.43 62.51 399.52 62.51 399.52 111.95 374.35 124.52 324.46 124.52" style="fill:none;stroke:#1d1d1b;stroke-miterlimit:10"/><polyline points="324.46 74.89 374.35 74.89 374.35 124.52" style="fill:none;stroke:#1d1d1b;stroke-miterlimit:10"/><line x1="374.35" y1="74.89" x2="399.52" y2="62.51" style="fill:none;stroke:#1d1d1b;stroke-miterlimit:10"/><polygon points="274.74 74.89 274.74 25.26 299.71 12.88 349.81 12.88 349.81 62.32 324.63 74.89 274.74 74.89" style="fill:#f7b281"/><polygon points="274.74 74.89 274.74 25.26 299.71 12.88 349.81 12.88 349.81 62.32 324.63 74.89 274.74 74.89" style="fill:none;stroke:#1d1d1b;stroke-miterlimit:10"/><polyline points="274.74 25.26 324.44 25.26 324.63 74.89" style="fill:none;stroke:#1d1d1b;stroke-miterlimit:10"/><line x1="324.44" y1="25.26" x2="349.81" y2="12.88" style="fill:none;stroke:#1d1d1b;stroke-miterlimit:10"/><polygon points="324.46 75 324.46 25.36 349.43 12.98 399.52 12.98 399.52 62.43 374.35 75 324.46 75" style="fill:#f6ef8f"/><polygon points="324.46 74.79 324.46 25.16 349.43 12.78 399.52 12.78 399.52 62.22 374.35 74.79 324.46 74.79" style="fill:none;stroke:#1d1d1b;stroke-miterlimit:10"/><polyline points="324.46 25.16 374 25.16 374.35 74.79" style="fill:none;stroke:#1d1d1b;stroke-miterlimit:10"/><line x1="374.01" y1="25.16" x2="399.52" y2="12.78" style="fill:none;stroke:#1d1d1b;stroke-miterlimit:10"/></g></g></g></svg>