<svg xmlns="http://www.w3.org/2000/svg" viewBox="0 0 307.83 257.68"><g id="Calque_2" data-name="Calque 2"><g id="PT1"><g id="Calque_15" data-name="Calque 15"><polygon points="153.51 231.66 153.51 128.94 204.67 103.32 307.33 103.32 307.33 205.65 255.75 231.66 153.51 231.66" style="fill:#9190c6"/><polygon points="153.51 231.23 153.51 128.51 204.67 102.89 307.33 102.89 307.33 205.22 255.75 231.23 153.51 231.23" style="fill:none;stroke:#1d1d1b;stroke-miterlimit:10"/><polyline points="153.51 128.51 254.24 128.51 255.75 231.23" style="fill:none;stroke:#1d1d1b;stroke-miterlimit:10"/><line x1="254.24" y1="128.51" x2="307.33" y2="102.89" style="fill:none;stroke:#1d1d1b;stroke-miterlimit:10"/><polygon points="51.62 128.84 51.62 26.12 102.78 0.5 205.45 0.5 205.45 102.83 153.86 128.84 51.62 128.84" style="fill:#3fbac7"/><polygon points="51.62 128.84 51.62 26.12 102.78 0.5 205.45 0.5 205.45 102.83 153.86 128.84 51.62 128.84" style="fill:none;stroke:#1d1d1b;stroke-miterlimit:10"/><polyline points="51.62 26.12 153.86 26.12 153.86 128.84" style="fill:none;stroke:#1d1d1b;stroke-miterlimit:10"/><line x1="153.86" y1="26.12" x2="205.45" y2="0.5" style="fill:none;stroke:#1d1d1b;stroke-miterlimit:10"/><polygon points="153.51 128.84 153.51 26.12 204.67 0.5 307.33 0.5 307.33 102.83 255.75 128.84 153.51 128.84" style="fill:#65a8dc"/><polygon points="153.51 128.84 153.51 26.12 204.67 0.5 307.33 0.5 307.33 102.83 255.75 128.84 153.51 128.84" style="fill:none;stroke:#1d1d1b;stroke-miterlimit:10"/><polyline points="153.51 26.12 254.74 26.12 255.75 128.84" style="fill:none;stroke:#1d1d1b;stroke-miterlimit:10"/><line x1="254.74" y1="26.12" x2="307.33" y2="0.5" style="fill:none;stroke:#1d1d1b;stroke-miterlimit:10"/><polygon points="0.5 257.18 0.5 154.46 51.66 128.84 154.32 128.84 154.32 231.17 102.74 257.18 0.5 257.18" style="fill:#5fbb9a"/><polygon points="0.5 257.18 0.5 154.46 51.66 128.84 154.32 128.84 154.32 231.17 102.74 257.18 0.5 257.18" style="fill:none;stroke:#1d1d1b;stroke-miterlimit:10"/><polyline points="0.5 154.46 102.74 154.46 102.74 257.18" style="fill:none;stroke:#1d1d1b;stroke-miterlimit:10"/><line x1="102.74" y1="154.46" x2="154.32" y2="128.84" style="fill:none;stroke:#1d1d1b;stroke-miterlimit:10"/><polygon points="102.39 257.18 102.39 154.46 153.55 128.84 256.21 128.84 256.21 231.17 204.63 257.18 102.39 257.18" style="fill:#ed6964"/><polygon points="102.39 257.18 102.39 154.46 153.55 128.84 256.21 128.84 256.21 231.17 204.63 257.18 102.39 257.18" style="fill:none;stroke:#1d1d1b;stroke-miterlimit:10"/><polyline points="102.39 154.46 204.63 154.46 204.63 257.18" style="fill:none;stroke:#1d1d1b;stroke-miterlimit:10"/><line x1="204.63" y1="154.46" x2="256.21" y2="128.84" style="fill:none;stroke:#1d1d1b;stroke-miterlimit:10"/><polygon points="0.5 154.46 0.5 51.75 51.66 26.12 154.32 26.12 154.32 128.45 102.74 154.46 0.5 154.46" style="fill:#f7b281"/><polygon points="0.5 154.46 0.5 51.75 51.66 26.12 154.32 26.12 154.32 128.45 102.74 154.46 0.5 154.46" style="fill:none;stroke:#1d1d1b;stroke-miterlimit:10"/><polyline points="0.5 51.75 102.34 51.75 102.74 154.46" style="fill:none;stroke:#1d1d1b;stroke-miterlimit:10"/><line x1="102.34" y1="51.75" x2="154.32" y2="26.12" style="fill:none;stroke:#1d1d1b;stroke-miterlimit:10"/><polygon points="102.39 154.68 102.39 51.96 153.55 26.34 256.21 26.34 256.21 128.66 204.63 154.68 102.39 154.68" style="fill:#f6ef8f"/><polygon points="102.39 154.25 102.39 51.53 153.55 25.91 256.21 25.91 256.21 128.24 204.63 154.25 102.39 154.25" style="fill:none;stroke:#1d1d1b;stroke-miterlimit:10"/><polyline points="102.39 51.53 203.92 51.53 204.63 154.25" style="fill:none;stroke:#1d1d1b;stroke-miterlimit:10"/><line x1="203.92" y1="51.53" x2="256.21" y2="25.91" style="fill:none;stroke:#1d1d1b;stroke-miterlimit:10"/></g></g></g></svg>