<svg xmlns="http://www.w3.org/2000/svg" viewBox="0 0 306.96 306.96"><g id="Calque_2" data-name="Calque 2"><g id="PT2"><g id="Calque_20" data-name="Calque 20"><rect x="0.5" y="0.5" width="305.96" height="305.96" style="fill:none;stroke:#1d1d1b;stroke-miterlimit:10"/><rect x="229.97" y="38.74" width="38.24" height="38.24" style="fill:none;stroke:#1d1d1b;stroke-miterlimit:10"/><rect x="268.21" y="0.5" width="19.12" height="19.12" style="fill:none;stroke:#1d1d1b;stroke-miterlimit:10"/><rect x="287.34" y="19.62" width="19.12" height="19.12" style="fill:none;stroke:#1d1d1b;stroke-miterlimit:10"/><rect x="268.21" y="0.5" width="38.24" height="38.24" style="fill:none;stroke:#1d1d1b;stroke-miterlimit:10"/><rect x="153.48" y="153.48" width="152.98" height="152.98" style="fill:none;stroke:#1d1d1b;stroke-miterlimit:10"/><circle cx="35.86" cy="245.75" r="3.73" style="fill:#d01226"/><circle cx="187.99" cy="121.69" r="3.73" style="fill:#58c1da"/><circle cx="274.04" cy="32.91" r="3.73" style="fill:#f3e600"/><circle cx="300.63" cy="6.33" r="3.73" style="fill:#63b333"/><circle cx="241.1" cy="54.14" r="3.73" style="fill:#eb6123"/><circle cx="287.34" cy="135.8" r="3.73" style="fill:#86539c"/><circle cx="259.98" cy="6.33" r="3.73" style="fill:#0080c0"/><rect x="0.5" y="0.5" width="152.98" height="152.98" style="fill:none;stroke:#1d1d1b;stroke-miterlimit:10"/><rect x="153.48" y="0.5" width="152.98" height="152.98" style="fill:none;stroke:#1d1d1b;stroke-miterlimit:10"/><rect x="153.48" y="0.5" width="76.49" height="76.49" style="fill:none;stroke:#1d1d1b;stroke-miterlimit:10"/><rect x="229.97" y="0.5" width="76.49" height="76.49" style="fill:none;stroke:#1d1d1b;stroke-miterlimit:10"/><rect x="153.48" y="76.99" width="76.49" height="76.49" style="fill:none;stroke:#000;stroke-miterlimit:10"/></g></g></g></svg>