<svg xmlns="http://www.w3.org/2000/svg" viewBox="0 0 319.71 264.37"><g id="Calque_2" data-name="Calque 2"><g id="PT1"><g id="Calque_17" data-name="Calque 17"><polygon points="66.72 231.78 66.72 147.03 108.94 125.89 193.64 125.89 193.64 210.32 151.08 231.78 66.72 231.78" style="fill:#ab83ba"/><polygon points="66.72 232.13 66.72 147.39 108.94 126.25 193.64 126.25 193.64 210.67 151.08 232.13 66.72 232.13" style="fill:none;stroke:#1d1d1b;stroke-miterlimit:10"/><polyline points="66.72 147.39 151.08 147.39 151.08 232.13" style="fill:none;stroke:#1d1d1b;stroke-miterlimit:10"/><line x1="151.08" y1="147.39" x2="193.64" y2="126.25" style="fill:#fff;stroke:#1d1d1b;stroke-miterlimit:10"/><polygon points="192.29 232.31 192.29 147.56 234.5 126.42 319.21 126.42 319.21 210.85 276.65 232.31 192.29 232.31" style="fill:#9190c6"/><polygon points="192.29 231.96 192.29 147.21 234.5 126.07 319.21 126.07 319.21 210.49 276.65 231.96 192.29 231.96" style="fill:none;stroke:#1d1d1b;stroke-miterlimit:10"/><polyline points="192.29 147.21 275.4 147.21 276.65 231.96" style="fill:none;stroke:#1d1d1b;stroke-miterlimit:10"/><line x1="275.4" y1="147.21" x2="319.21" y2="126.07" style="fill:none;stroke:#1d1d1b;stroke-miterlimit:10"/><polygon points="66.72 106.75 66.72 22 108.94 0.85 193.64 0.85 193.64 85.28 151.08 106.75 66.72 106.75" style="fill:#3fbac7"/><polygon points="66.72 106.75 66.72 22 108.94 0.85 193.64 0.85 193.64 85.28 151.08 106.75 66.72 106.75" style="fill:none;stroke:#1d1d1b;stroke-miterlimit:10"/><polyline points="66.72 22 151.08 22 151.08 106.75" style="fill:none;stroke:#1d1d1b;stroke-miterlimit:10"/><line x1="151.08" y1="22" x2="193.64" y2="0.85" style="fill:none;stroke:#1d1d1b;stroke-miterlimit:10"/><polygon points="192.29 106.39 192.29 21.64 234.5 0.5 319.21 0.5 319.21 84.93 276.65 106.39 192.29 106.39" style="fill:#65a8dc"/><polygon points="192.29 106.39 192.29 21.64 234.5 0.5 319.21 0.5 319.21 84.93 276.65 106.39 192.29 106.39" style="fill:none;stroke:#1d1d1b;stroke-miterlimit:10"/><polyline points="192.29 21.64 275.81 21.64 276.65 106.39" style="fill:none;stroke:#1d1d1b;stroke-miterlimit:10"/><line x1="275.81" y1="21.64" x2="319.21" y2="0.5" style="fill:none;stroke:#1d1d1b;stroke-miterlimit:10"/><polygon points="0.5 263.87 0.5 179.12 42.71 157.98 127.42 157.98 127.42 242.4 84.86 263.87 0.5 263.87" style="fill:#5fbb9a"/><polygon points="0.5 263.87 0.5 179.12 42.71 157.98 127.42 157.98 127.42 242.4 84.86 263.87 0.5 263.87" style="fill:none;stroke:#1d1d1b;stroke-miterlimit:10"/><polyline points="0.5 179.12 84.86 179.12 84.86 263.87" style="fill:none;stroke:#1d1d1b;stroke-miterlimit:10"/><line x1="84.86" y1="179.12" x2="127.42" y2="157.98" style="fill:none;stroke:#1d1d1b;stroke-miterlimit:10"/><polygon points="126.07 263.87 126.07 179.12 168.28 157.98 252.98 157.98 252.98 242.4 210.43 263.87 126.07 263.87" style="fill:#ed6964"/><polygon points="126.07 263.87 126.07 179.12 168.28 157.98 252.98 157.98 252.98 242.4 210.43 263.87 126.07 263.87" style="fill:none;stroke:#1d1d1b;stroke-miterlimit:10"/><polyline points="126.07 179.12 210.43 179.12 210.43 263.87" style="fill:none;stroke:#1d1d1b;stroke-miterlimit:10"/><line x1="210.43" y1="179.12" x2="252.98" y2="157.98" style="fill:none;stroke:#1d1d1b;stroke-miterlimit:10"/><polygon points="0.5 138.3 0.5 53.55 42.71 32.41 127.42 32.41 127.42 116.83 84.86 138.3 0.5 138.3" style="fill:#f7b281"/><polygon points="0.5 138.3 0.5 53.55 42.71 32.41 127.42 32.41 127.42 116.83 84.86 138.3 0.5 138.3" style="fill:none;stroke:#1d1d1b;stroke-miterlimit:10"/><polyline points="0.5 53.55 84.53 53.55 84.86 138.3" style="fill:none;stroke:#1d1d1b;stroke-miterlimit:10"/><line x1="84.53" y1="53.55" x2="127.42" y2="32.41" style="fill:none;stroke:#1d1d1b;stroke-miterlimit:10"/><polygon points="126.07 138.48 126.07 53.73 168.28 32.59 252.98 32.59 252.98 117.01 210.43 138.48 126.07 138.48" style="fill:#f6ef8f"/><polygon points="126.07 138.12 126.07 53.37 168.28 32.23 252.98 32.23 252.98 116.66 210.43 138.12 126.07 138.12" style="fill:none;stroke:#1d1d1b;stroke-miterlimit:10"/><polyline points="126.07 53.37 209.84 53.37 210.43 138.12" style="fill:none;stroke:#1d1d1b;stroke-miterlimit:10"/><line x1="209.84" y1="53.37" x2="252.98" y2="32.23" style="fill:none;stroke:#1d1d1b;stroke-miterlimit:10"/></g></g></g></svg>