<svg xmlns="http://www.w3.org/2000/svg" viewBox="0 0 338.29 258.34"><g id="Calque_2" data-name="Calque 2"><g id="PT2"><g id="Calque_20" data-name="Calque 20"><line x1="10.5" y1="20.49" x2="10.5" y2="56.82" style="fill:none;stroke:#1d1d1b;stroke-miterlimit:10"/><path d="M10.5,59.84a15.25,15.25,0,0,0-2.38-4.28l2.38.86,2.37-.86A15,15,0,0,0,10.5,59.84Z" style="fill:#1d1d1b"/><circle cx="10.5" cy="10.5" r="10" style="fill:none;stroke:#1d1d1b;stroke-miterlimit:10"/><circle cx="116.26" cy="129.17" r="10" style="fill:none;stroke:#1d1d1b;stroke-miterlimit:10"/><circle cx="186.77" cy="129.17" r="10" style="fill:none;stroke:#1d1d1b;stroke-miterlimit:10"/><circle cx="257.28" cy="129.17" r="10" style="fill:#58c1da;stroke:#1d1d1b;stroke-miterlimit:10"/><circle cx="327.79" cy="129.17" r="10" style="fill:#86539c;stroke:#1d1d1b;stroke-miterlimit:10"/><circle cx="186.77" cy="188.5" r="10" style="fill:#0080c0;stroke:#1d1d1b;stroke-miterlimit:10"/><circle cx="233.78" cy="188.5" r="10" style="fill:none;stroke:#1d1d1b;stroke-miterlimit:10"/><circle cx="280.79" cy="188.5" r="10" style="fill:#eb6123;stroke:#1d1d1b;stroke-miterlimit:10"/><circle cx="327.79" cy="188.5" r="10" style="fill:none;stroke:#1d1d1b;stroke-miterlimit:10"/><circle cx="233.78" cy="247.84" r="10" style="fill:none;stroke:#1d1d1b;stroke-miterlimit:10"/><circle cx="265.12" cy="247.84" r="10" style="fill:#63b333;stroke:#1d1d1b;stroke-miterlimit:10"/><circle cx="296.46" cy="247.84" r="10" style="fill:#f3e600;stroke:#1d1d1b;stroke-miterlimit:10"/><circle cx="327.79" cy="247.84" r="10" style="fill:none;stroke:#1d1d1b;stroke-miterlimit:10"/><circle cx="10.5" cy="69.83" r="10" style="fill:none;stroke:#1d1d1b;stroke-miterlimit:10"/><circle cx="116.26" cy="69.83" r="10" style="fill:none;stroke:#1d1d1b;stroke-miterlimit:10"/><circle cx="222.03" cy="69.83" r="10" style="fill:#d01226;stroke:#1d1d1b;stroke-miterlimit:10"/><circle cx="327.79" cy="69.83" r="10" style="fill:none;stroke:#1d1d1b;stroke-miterlimit:10"/><line x1="20.49" y1="69.83" x2="103.25" y2="69.83" style="fill:none;stroke:#1d1d1b;stroke-miterlimit:10"/><path d="M106.27,69.83A15.25,15.25,0,0,0,102,72.21l.86-2.38L102,67.46A15,15,0,0,0,106.27,69.83Z" style="fill:#1d1d1b"/><line x1="126.26" y1="69.83" x2="209.01" y2="69.83" style="fill:none;stroke:#1d1d1b;stroke-miterlimit:10"/><path d="M212,69.83a15.2,15.2,0,0,0-4.27,2.38l.86-2.38-.86-2.37A14.93,14.93,0,0,0,212,69.83Z" style="fill:#1d1d1b"/><line x1="232.02" y1="69.83" x2="314.78" y2="69.83" style="fill:none;stroke:#1d1d1b;stroke-miterlimit:10"/><path d="M317.8,69.83a15.25,15.25,0,0,0-4.28,2.38l.86-2.38-.86-2.37A15,15,0,0,0,317.8,69.83Z" style="fill:#1d1d1b"/><line x1="116.26" y1="79.83" x2="116.26" y2="116.15" style="fill:none;stroke:#1d1d1b;stroke-miterlimit:10"/><path d="M116.26,119.17a14.72,14.72,0,0,0-2.38-4.27l2.38.86,2.38-.86A15.2,15.2,0,0,0,116.26,119.17Z" style="fill:#1d1d1b"/><line x1="126.26" y1="129.17" x2="173.76" y2="129.17" style="fill:none;stroke:#1d1d1b;stroke-miterlimit:10"/><path d="M176.78,129.17a14.77,14.77,0,0,0-4.28,2.38l.86-2.38-.86-2.38A15.25,15.25,0,0,0,176.78,129.17Z" style="fill:#1d1d1b"/><line x1="196.77" y1="129.17" x2="244.27" y2="129.17" style="fill:none;stroke:#1d1d1b;stroke-miterlimit:10"/><path d="M247.29,129.17a14.77,14.77,0,0,0-4.28,2.38l.86-2.38-.86-2.38A15.25,15.25,0,0,0,247.29,129.17Z" style="fill:#1d1d1b"/><line x1="267.28" y1="129.17" x2="314.78" y2="129.17" style="fill:none;stroke:#1d1d1b;stroke-miterlimit:10"/><path d="M317.8,129.17a14.77,14.77,0,0,0-4.28,2.38l.86-2.38-.86-2.38A15.25,15.25,0,0,0,317.8,129.17Z" style="fill:#1d1d1b"/><line x1="186.77" y1="139.16" x2="186.77" y2="175.49" style="fill:none;stroke:#1d1d1b;stroke-miterlimit:10"/><path d="M186.77,178.51a14.9,14.9,0,0,0-2.38-4.28l2.38.86,2.38-.86A15.39,15.39,0,0,0,186.77,178.51Z" style="fill:#1d1d1b"/><line x1="196.77" y1="188.5" x2="220.76" y2="188.5" style="fill:none;stroke:#1d1d1b;stroke-miterlimit:10"/><path d="M223.78,188.5a15.2,15.2,0,0,0-4.27,2.38l.86-2.38-.86-2.37A14.93,14.93,0,0,0,223.78,188.5Z" style="fill:#1d1d1b"/><line x1="243.78" y1="188.5" x2="267.77" y2="188.5" style="fill:none;stroke:#1d1d1b;stroke-miterlimit:10"/><path d="M270.79,188.5a15.2,15.2,0,0,0-4.27,2.38l.86-2.38-.86-2.37A14.93,14.93,0,0,0,270.79,188.5Z" style="fill:#1d1d1b"/><line x1="290.78" y1="188.5" x2="314.78" y2="188.5" style="fill:none;stroke:#1d1d1b;stroke-miterlimit:10"/><path d="M317.8,188.5a15.25,15.25,0,0,0-4.28,2.38l.86-2.38-.86-2.37A15,15,0,0,0,317.8,188.5Z" style="fill:#1d1d1b"/><line x1="233.78" y1="198.5" x2="233.78" y2="234.82" style="fill:none;stroke:#1d1d1b;stroke-miterlimit:10"/><path d="M233.78,237.84a15.2,15.2,0,0,0-2.38-4.27l2.38.86,2.38-.86A15,15,0,0,0,233.78,237.84Z" style="fill:#1d1d1b"/><line x1="243.78" y1="247.84" x2="252.1" y2="247.84" style="fill:none;stroke:#1d1d1b;stroke-miterlimit:10"/><path d="M255.12,247.84a15.2,15.2,0,0,0-4.27,2.38l.86-2.38-.86-2.38A15.2,15.2,0,0,0,255.12,247.84Z" style="fill:#1d1d1b"/><line x1="275.11" y1="247.84" x2="283.44" y2="247.84" style="fill:none;stroke:#1d1d1b;stroke-miterlimit:10"/><path d="M286.46,247.84a15.39,15.39,0,0,0-4.28,2.38l.86-2.38-.86-2.38A15.39,15.39,0,0,0,286.46,247.84Z" style="fill:#1d1d1b"/><line x1="306.45" y1="247.84" x2="314.78" y2="247.84" style="fill:none;stroke:#1d1d1b;stroke-miterlimit:10"/><path d="M317.8,247.84a15.25,15.25,0,0,0-4.28,2.38l.86-2.38-.86-2.38A15.25,15.25,0,0,0,317.8,247.84Z" style="fill:#1d1d1b"/></g></g></g></svg>